<svg width="27" height="26" viewBox="0 0 27 26" fill="none" xmlns="http://www.w3.org/2000/svg">
<g clip-path="url(#clip0_4_85)">
<path d="M23.625 5.6875H13.5V8.125H25.1016C24.7219 7.27188 24.2156 6.41875 23.625 5.6875Z" fill="#ED4C5C"/>
<path d="M25.9031 15.4375C26.0719 14.6656 26.1562 13.8531 26.1562 13H0.84375C0.84375 13.8531 0.928125 14.6656 1.09687 15.4375H25.9031Z" fill="#F9F9F9"/>
<path d="M13.5 0.8125V3.25H21.0938C18.9844 1.70625 16.3688 0.8125 13.5 0.8125Z" fill="#ED4C5C"/>
<path d="M13.5 5.6875H23.625C22.9078 4.75313 22.0641 3.94063 21.0938 3.25H13.5V5.6875ZM25.1016 8.125H13.5V10.5625H25.9031C25.7344 9.70937 25.4391 8.89687 25.1016 8.125Z" fill="#F9F9F9"/>
<path d="M13.5 10.5625V13H26.1562C26.1562 12.1469 26.0719 11.3344 25.9031 10.5625H13.5ZM1.89843 17.875H25.1016C25.4391 17.1031 25.7344 16.2906 25.9031 15.4375H1.09686C1.26561 16.2906 1.56093 17.1031 1.89843 17.875Z" fill="#ED4C5C"/>
<path d="M3.375 20.3125H23.625C24.2156 19.5813 24.7219 18.7281 25.1016 17.875H1.89844C2.27812 18.7281 2.78438 19.5813 3.375 20.3125Z" fill="#F9F9F9"/>
<path d="M3.375 20.3125C4.09219 21.2469 4.93594 22.0594 5.90625 22.75H21.0938C22.0641 22.0594 22.9078 21.2469 23.625 20.3125H3.375Z" fill="#ED4C5C"/>
<path d="M5.90625 22.75C8.01562 24.2937 10.6312 25.1875 13.5 25.1875C16.3687 25.1875 18.9844 24.2937 21.0938 22.75H5.90625Z" fill="#F9F9F9"/>
<path d="M13.5 0.8125C6.49687 0.8125 0.84375 6.25625 0.84375 13H13.5V0.8125Z" fill="#500157"/>
<path d="M8.39531 10.4C7.12969 10.4 6.075 9.38438 6.075 8.125C6.075 6.86563 7.12969 5.85 8.39531 5.85C8.90156 5.85 9.32344 6.0125 9.70312 6.25625C9.15469 5.64687 8.39531 5.28125 7.50937 5.28125C5.90625 5.28125 4.64062 6.54062 4.64062 8.125C4.64062 9.70937 5.94844 10.9688 7.50937 10.9688C8.39531 10.9688 9.15469 10.6031 9.70312 9.99375C9.32344 10.2375 8.85938 10.4 8.39531 10.4ZM10.9688 7.6375L11.2641 6.90625L11.1797 7.67812L11.7703 7.15L11.3484 7.84062L12.1078 7.59688L11.4328 8.00313L12.2344 8.125L11.4328 8.24687L12.1078 8.65312L11.3484 8.40938L11.7703 9.1L11.1797 8.57188L11.2641 9.34375L10.9688 8.6125L10.6734 9.34375L10.7578 8.57188L10.1672 9.1L10.5891 8.40938L9.82969 8.65312L10.5047 8.24687L9.70312 8.125L10.5047 8.00313L9.82969 7.59688L10.5891 7.84062L10.1672 7.15L10.7578 7.67812L10.6734 6.90625L10.9688 7.6375Z" fill="#FFE62E"/>
</g>
<defs>
<clipPath id="clip0_4_85">
<rect width="27" height="26" fill="white"/>
</clipPath>
</defs>
</svg>
