<svg width="27" height="26" viewBox="0 0 27 26" fill="none" xmlns="http://www.w3.org/2000/svg">
<g clip-path="url(#clip0_4_76)">
<path d="M26.0297 11.375C25.9875 10.9688 25.9032 10.5625 25.8188 10.1562H1.18127C1.0969 10.5625 1.01252 10.9688 0.970337 11.375H26.0297ZM0.970337 14.625C1.01252 15.0312 1.0969 15.4375 1.18127 15.8438H25.7766C25.861 15.4375 25.9453 15.0312 25.9875 14.625H0.970337Z" fill="white"/>
<path d="M8.4375 1.82813C8.01562 1.99063 7.59375 2.23438 7.17188 2.4375V23.5625C7.59375 23.8063 8.01562 24.0094 8.4375 24.1719V1.82813ZM11.8125 0.934375V25.1063L13.0781 25.2281V0.8125C12.6562 0.8125 12.2344 0.853125 11.8125 0.934375Z" fill="white"/>
<path d="M0.84375 13C0.84375 13.5687 0.885937 14.0969 0.970312 14.625H26.0719C26.1562 14.0969 26.1984 13.5687 26.1984 13C26.1984 12.4312 26.1562 11.9031 26.0719 11.375H0.970312C0.885937 11.9031 0.84375 12.4312 0.84375 13Z" fill="#428BC1"/>
<path d="M8.4375 24.1718C9.49219 24.6187 10.6312 24.9437 11.8125 25.0656V0.934326C10.6312 1.09683 9.49219 1.3812 8.4375 1.82808V24.1718Z" fill="#428BC1"/>
<path d="M7.1719 10.1562V2.4375C4.21877 4.10312 2.02502 6.86562 1.18127 10.1562H7.1719ZM7.1719 15.8438V23.5625C4.21877 21.8969 2.02502 19.1344 1.18127 15.8438H7.1719ZM13.5 0.8125H13.0781V10.1562H25.8188C24.4688 4.79375 19.4907 0.8125 13.5 0.8125ZM13.0781 15.8438V25.1875H13.5C19.4907 25.1875 24.4688 21.2062 25.8188 15.8438H13.0781Z" fill="#ED4C5C"/>
</g>
<defs>
<clipPath id="clip0_4_76">
<rect width="27" height="26" fill="white"/>
</clipPath>
</defs>
</svg>
